<svg width="20" height="20" viewBox="0 0 20 20" fill="none" xmlns="http://www.w3.org/2000/svg">
<path d="M8.39111 10.8045C8.73662 11.2664 9.17743 11.6486 9.68364 11.9252C10.1898 12.2018 10.7496 12.3662 11.325 12.4074C11.9003 12.4486 12.4778 12.3656 13.0183 12.164C13.5587 11.9624 14.0495 11.6469 14.4573 11.239L16.8709 8.82538C17.6037 8.06669 18.0091 7.05056 18 5.99583C17.9908 4.9411 17.5677 3.93216 16.8219 3.18633C16.0761 2.44049 15.0671 2.01744 14.0124 2.00827C12.9577 1.9991 11.9415 2.40457 11.1828 3.13733L9.79905 4.51308" stroke="#7B8EC8" stroke-width="1.2" stroke-linecap="round" stroke-linejoin="round"/>
<path d="M11.609 9.19545C11.2635 8.73355 10.8227 8.35135 10.3165 8.07478C9.81026 7.79822 9.2505 7.63376 8.67514 7.59255C8.09978 7.55135 7.52229 7.63436 6.98184 7.83597C6.44139 8.03757 5.95062 8.35305 5.54281 8.761L3.12921 11.1746C2.39645 11.9333 1.99099 12.9494 2.00015 14.0042C2.00932 15.0589 2.43238 16.0678 3.17821 16.8137C3.92405 17.5595 4.93298 17.9825 5.98771 17.9917C7.04244 18.0009 8.05858 17.5954 8.81726 16.8627L10.193 15.4869" stroke="#7B8EC8" stroke-width="1.2" stroke-linecap="round" stroke-linejoin="round"/>
</svg>
