<svg width="10" height="10" viewBox="0 0 10 10" fill="none" xmlns="http://www.w3.org/2000/svg">
<path d="M5 9.47368C5.88481 9.47368 6.74975 9.2113 7.48544 8.71973C8.22113 8.22815 8.79454 7.52946 9.13314 6.712C9.47174 5.89454 9.56033 4.99503 9.38772 4.12723C9.2151 3.25942 8.78902 2.46228 8.16336 1.83663C7.53771 1.21097 6.74058 0.784896 5.87277 0.612278C5.00496 0.43966 4.10545 0.528254 3.28799 0.866856C2.47053 1.20546 1.77184 1.77886 1.28027 2.51455C0.788692 3.25025 0.526315 4.11519 0.526315 5C0.526315 5.73965 0.705263 6.43704 1.02339 7.05143L0.526315 9.47368L2.94856 8.9766C3.56295 9.29473 4.26084 9.47368 5 9.47368Z" stroke="#1DA1F2" stroke-linecap="round" stroke-linejoin="round"/>
</svg>
